# xmcd
#
# Track frame offsets:
#	150
#	19530
#	48332
#	69842
#	101845
#	120177
#	146036
#	177894
#	206539
#	242265
#
# Disc length: 3550 seconds
#
# Revision: 1
# Processed by: cddbd v1.5.2PL0 Copyright (c) Steve Scherf et al.
# Submitted via: audiograbber 1.83.01
#
DISCID=790ddc0a
DTITLE=John Hiatt - Live at the Hiatt
DYEAR=2006
DGENRE=Country Rock
TTITLE0=Through Your Hands
TTITLE1=Child of the Wild Blue Yonder
TTITLE2=Loving a Hurricane
TTITLE3=When You Hold Me Tight
TTITLE4=I Don't Even Try
TTITLE5=Feels Like Rain
TTITLE6=Something Wild
TTITLE7=Perfectly Good Guitar
TTITLE8=Slow Turning
TTITLE9=Lipstick Sunset
EXTD=
EXTT0=
EXTT1=
EXTT2=
EXTT3=
EXTT4=
EXTT5=
EXTT6=
EXTT7=
EXTT8=
EXTT9=
PLAYORDER=
